<svg x="0" y="0" width="2160" height="1440" viewBox="0 0 2160 1440" xmlns="http://www.w3.org/2000/svg" xmlns:xlink="http://www.w3.org/1999/xlink" xmlns:fi="http://pattern.flaticon.com/"><rect x="0px" y="0px" width="100%" height="100%" opacity="1" fill="#e7fffa"/><defs><g transform="matrix(0.10219922661781311 -0.052480682730674744 0.052480682730674744 0.10219922661781311 252.40171813964844 273.2718505859375)" id="L1_0"><path d="M291.057,242.811c1.51,2.953,4.514,4.659,7.62,4.659c1.297,0,2.628-0.299,3.866-0.93     c0.503-0.256,50.731-25.771,75.503-33.596c4.489-1.425,6.98-6.221,5.555-10.709c-1.417-4.489-6.178-6.989-10.709-5.572     c-26.095,8.252-75.981,33.596-78.097,34.671C290.596,233.467,288.924,238.605,291.057,242.811z" fill="#7cde64"/><path d="M298.677,145.071c1.297,0,2.628-0.299,3.866-0.93c0.503-0.256,50.731-25.771,75.503-33.596     c4.489-1.425,6.98-6.221,5.555-10.709c-1.417-4.489-6.178-6.989-10.709-5.572c-26.095,8.252-75.981,33.596-78.097,34.671     c-4.198,2.133-5.871,7.27-3.738,11.477C292.567,143.364,295.571,145.071,298.677,145.071z" fill="#7cde64"/><path d="M503.469,128.004c-4.719,0-8.533,3.823-8.533,8.533v332.8c0,14.114-11.486,25.6-25.6,25.6h-204.8v-19.635     c12.442-4.352,44.851-14.498,76.8-14.498c74.334,0,124.809,16.461,125.312,16.631c2.568,0.853,5.436,0.427,7.68-1.178     c2.227-1.604,3.541-4.181,3.541-6.921V93.871c0-4.002-2.773-7.467-6.682-8.329c0,0-6.69-1.493-18.125-3.593     c-4.617-0.853-9.079,2.219-9.933,6.844c-0.853,4.642,2.21,9.088,6.844,9.941c4.361,0.802,8.013,1.51,10.829,2.074v357.188     c-19.337-5.069-62.276-14.259-119.467-14.259c-37.18,0-73.702,12.211-85.001,16.35c-10.044-4.437-40.405-16.35-77.133-16.35     c-58.778,0-107.196,9.694-128,14.618V100.475c17.041-4.19,67.371-15.138,128-15.138c31.113,0,57.796,9.685,68.267,14.063v335.804     c0,3.072,1.655,5.914,4.326,7.424c2.671,1.519,5.965,1.476,8.602-0.111c0.845-0.503,85.393-51.004,160.435-76.015     c3.49-1.169,5.837-4.42,5.837-8.098V8.537c0-2.799-1.374-5.419-3.678-7.014c-2.287-1.596-5.222-1.963-7.859-0.981     C346.856,26.15,277.771,69.141,277.079,69.568c-3.994,2.5-5.214,7.765-2.714,11.759c2.492,3.994,7.757,5.214,11.759,2.714     c0.631-0.401,60.732-37.794,123.477-63.027v331.281c-58.249,20.241-119.066,53.291-145.067,68.087V93.871     c0-3.234-1.826-6.187-4.719-7.637c-1.468-0.725-36.437-17.963-80.614-17.963c-77.107,0-136.388,16.683-138.88,17.399     c-3.661,1.041-6.187,4.395-6.187,8.201v375.467c0,2.671,1.263,5.197,3.388,6.81c1.502,1.135,3.311,1.724,5.146,1.724     c0.785,0,1.57-0.111,2.338-0.333c0.589-0.162,59.597-16.734,134.195-16.734c31.198,0,57.856,9.711,68.267,14.071v20.062h-204.8     c-14.114,0-25.6-11.486-25.6-25.6v-332.8c0-4.71-3.823-8.533-8.533-8.533s-8.533,3.823-8.533,8.533v332.8     c0,23.526,19.14,42.667,42.667,42.667h426.667c23.526,0,42.667-19.14,42.667-42.667v-332.8     C512.002,131.827,508.188,128.004,503.469,128.004z" fill="#7cde64"/><path d="M291.057,191.611c1.51,2.953,4.514,4.659,7.62,4.659c1.297,0,2.628-0.299,3.866-0.93     c0.503-0.256,50.731-25.771,75.503-33.596c4.489-1.425,6.98-6.221,5.555-10.709c-1.417-4.489-6.178-6.989-10.709-5.572     c-26.095,8.252-75.981,33.596-78.097,34.671C290.596,182.267,288.924,187.405,291.057,191.611z" fill="#7cde64"/><path d="M291.057,294.011c1.51,2.953,4.514,4.659,7.62,4.659c1.297,0,2.628-0.299,3.866-0.93     c0.503-0.256,50.731-25.771,75.503-33.596c4.489-1.425,6.98-6.221,5.555-10.709c-1.417-4.489-6.178-6.989-10.709-5.572     c-26.095,8.252-75.981,33.596-78.097,34.671C290.596,284.667,288.924,289.805,291.057,294.011z" fill="#7cde64"/><path d="M206.748,158.366c-52.693-12.365-112.572,3.388-115.089,4.062c-4.548,1.22-7.253,5.896-6.033,10.453     c1.024,3.814,4.471,6.323,8.235,6.323c0.734,0,1.476-0.094,2.219-0.29c0.572-0.162,58.223-15.326,106.778-3.934     c4.565,1.067,9.182-1.775,10.257-6.366C214.189,164.032,211.339,159.441,206.748,158.366z" fill="#7cde64"/><path d="M206.748,209.566c-52.693-12.356-112.572,3.388-115.089,4.062c-4.548,1.22-7.253,5.897-6.033,10.453     c1.024,3.814,4.471,6.323,8.235,6.323c0.734,0,1.476-0.094,2.219-0.29c0.572-0.162,58.223-15.326,106.778-3.934     c4.565,1.067,9.182-1.775,10.257-6.366C214.189,215.232,211.339,210.641,206.748,209.566z" fill="#7cde64"/><path d="M291.057,345.211c1.51,2.953,4.514,4.659,7.62,4.659c1.297,0,2.628-0.299,3.866-0.93     c0.503-0.256,50.731-25.771,75.503-33.596c4.489-1.425,6.98-6.221,5.555-10.709c-1.417-4.488-6.178-6.989-10.709-5.572     c-26.095,8.252-75.981,33.596-78.097,34.671C290.596,335.867,288.924,341.005,291.057,345.211z" fill="#7cde64"/><path d="M206.748,260.766c-52.693-12.356-112.572,3.379-115.089,4.062c-4.548,1.22-7.253,5.897-6.033,10.453     c1.024,3.814,4.471,6.332,8.235,6.332c0.734,0,1.476-0.102,2.219-0.299c0.572-0.162,58.223-15.326,106.778-3.934     c4.565,1.067,9.182-1.775,10.257-6.366C214.189,266.432,211.339,261.841,206.748,260.766z" fill="#7cde64"/><path d="M206.748,363.166c-52.693-12.365-112.572,3.388-115.089,4.062c-4.548,1.22-7.253,5.897-6.033,10.453     c1.024,3.814,4.471,6.332,8.235,6.332c0.734,0,1.476-0.102,2.219-0.299c0.572-0.162,58.223-15.326,106.778-3.934     c4.565,1.058,9.182-1.775,10.257-6.366C214.189,368.832,211.339,364.241,206.748,363.166z" fill="#7cde64"/><path d="M206.748,311.966c-52.693-12.365-112.572,3.379-115.089,4.062c-4.548,1.22-7.253,5.897-6.033,10.453     c1.024,3.814,4.471,6.332,8.235,6.332c0.734,0,1.476-0.102,2.219-0.299c0.572-0.162,58.223-15.326,106.778-3.934     c4.565,1.067,9.182-1.775,10.257-6.366C214.189,317.632,211.339,313.041,206.748,311.966z" fill="#7cde64"/></g><path d="m485.341 437.426h-13.18c-9.144-21.726-9.148-42.925-.01-64.542h13.19c14.7 0 26.659-11.959 26.659-26.66 0-14.7-11.959-26.66-26.659-26.66h-53.038c6.751-7.712 10.855-17.795 10.855-28.826v-83.53c0-24.166-19.659-43.826-43.824-43.826h-21.567c1.83-3.648 2.866-7.761 2.866-12.113 0-14.967-12.162-27.144-27.112-27.144h-7.419c-6.621-16.367-6.625-32.353-.011-48.615h7.43c14.95 0 27.112-12.177 27.112-27.144 0-14.95-12.162-27.113-27.112-27.113h-253.003c-43.328 0-78.578 35.237-78.578 78.549 0 20.946 8.186 40.667 23.048 55.53 2.955 2.955 6.109 5.634 9.419 8.049h-5.808c-14.7 0-26.659 11.959-26.659 26.66s11.959 26.66 26.659 26.66h13.19c9.138 21.615 9.135 42.815-.01 64.541h-13.18c-14.7 0-26.659 11.959-26.659 26.66 0 5.624 1.755 10.843 4.739 15.148-15.668 6.685-26.679 22.249-26.679 40.34v83.531c0 24.166 19.646 43.825 43.794 43.825h441.546c14.7 0 26.659-11.959 26.659-26.66.001-14.7-11.958-26.66-26.658-26.66zm0-102.862c6.429 0 11.659 5.231 11.659 11.66s-5.23 11.66-11.659 11.66h-135.357c-4.143 0-7.5 3.358-7.5 7.5s3.357 7.5 7.5 7.5h106.078c-2.931 8.232-4.723 16.496-5.4 24.771 0 0-2.996 14.845 5.416 39.771h-400.588c-1.176 0-2.17-.994-2.17-2.171v-60.2c0-1.176.994-2.17 2.17-2.17h74.301l.005 24.632c-.473 7.374 3.128 10.28 5.339 11.36 2.241 1.096 6.845 2.157 12.51-3.021.039-.036.078-.072.116-.108l20.964-19.995 20.964 19.995c.038.037.077.073.116.108 3.316 3.031 6.268 3.926 8.599 3.926 1.665 0 3.013-.457 3.949-.918 2.214-1.09 5.81-4.01 5.301-11.367l.01-24.612h105.392c4.143 0 7.5-3.358 7.5-7.5s-3.357-7.5-7.5-7.5h-105.387l.01-23.32h277.662zm-402.059-93.09c-.676-8.275-2.503-16.538-5.432-24.771h309.82c1.177 0 2.171.994 2.171 2.17v60.2c0 1.176-.994 2.17-2.171 2.17h-179.969l.01-24.771h52.489c4.143 0 7.5-3.358 7.5-7.5s-3.357-7.5-7.5-7.5h-176.918zm46.49 39.77h-51.939c2.927-8.244 4.757-16.507 5.441-24.771h46.493zm62.939-24.77-.054 131.376-18.757-17.89c-2.897-2.764-7.455-2.764-10.353 0l-18.754 17.888-.027-131.375h47.945zm-155.771-156.671c0-35.041 28.521-63.549 63.578-63.549h253.003c6.679 0 12.112 5.434 12.112 12.113 0 6.696-5.434 12.144-12.112 12.144h-138.258c-4.142 0-7.5 3.358-7.5 7.5s3.358 7.5 7.5 7.5h114.847c-5.294 16.134-5.287 32.411.02 48.615h-229.612c-6.45 0-12.557-2.541-17.167-7.128-4.614-4.638-7.155-10.744-7.155-17.195 0-13.395 10.911-24.292 24.322-24.292h77.817c4.142 0 7.5-3.358 7.5-7.5s-3.358-7.5-7.5-7.5h-77.817c-21.682 0-39.322 17.626-39.322 39.292 0 10.443 4.092 20.307 11.548 27.801 7.468 7.43 17.331 11.522 27.774 11.522h253.003c6.679 0 12.112 5.448 12.112 12.144 0 6.679-5.434 12.113-12.112 12.113h-253.003c-16.939 0-32.893-6.625-44.923-18.656-12.03-12.03-18.655-27.984-18.655-44.924zm11.659 101.9c-6.429 0-11.659-5.23-11.659-11.66 0-6.429 5.23-11.66 11.659-11.66h350.735c15.894 0 28.824 12.931 28.824 28.826v83.53c0 15.895-12.931 28.826-28.824 28.826h-191.649l.01-23.32h179.974c9.468 0 17.171-7.703 17.171-17.17v-60.2c0-9.468-7.703-17.17-17.171-17.17h-339.07zm0 94.541h81.176l.005 23.32h-81.18c-6.429 0-11.659-5.231-11.659-11.66-.001-6.429 5.229-11.66 11.658-11.66zm436.742 179.502h-441.547c-15.877 0-28.794-12.931-28.794-28.825v-83.531c0-15.895 12.917-28.826 28.794-28.826h85.988l.005 23.32h-74.297c-9.468 0-17.17 7.703-17.17 17.17v60.2c0 9.468 7.703 17.171 17.17 17.171h429.851c6.429 0 11.659 5.231 11.659 11.66s-5.23 11.661-11.659 11.661z" transform="matrix(0.10555914789438248 -0.051353104412555695 0.051353104412555695 0.10555914789438248 78.07074737548828 83.06884765625)" id="L1_2"/></defs><g fi:class="KUsePattern"><pattern id="pattern_L1_0" width="350" height="350" patternUnits="userSpaceOnUse"><use xlink:href="#L1_0" x="-350" y="-350"/><use xlink:href="#L1_0" x="0" y="-350"/><use xlink:href="#L1_0" x="350" y="-350"/><use xlink:href="#L1_0" x="-350" y="0"/><use xlink:href="#L1_0" x="0" y="0"/><use xlink:href="#L1_0" x="350" y="0"/><use xlink:href="#L1_0" x="-350" y="350"/><use xlink:href="#L1_0" x="0" y="350"/><use xlink:href="#L1_0" x="350" y="350"/></pattern><rect x="0" y="0" width="100%" height="100%" fill="url(#pattern_L1_0)"/></g><g fi:class="KUsePattern"><pattern id="pattern_L1_2" width="350" height="350" patternUnits="userSpaceOnUse"><use xlink:href="#L1_2" x="-350" y="-350"/><use xlink:href="#L1_2" x="0" y="-350"/><use xlink:href="#L1_2" x="350" y="-350"/><use xlink:href="#L1_2" x="-350" y="0"/><use xlink:href="#L1_2" x="0" y="0"/><use xlink:href="#L1_2" x="350" y="0"/><use xlink:href="#L1_2" x="-350" y="350"/><use xlink:href="#L1_2" x="0" y="350"/><use xlink:href="#L1_2" x="350" y="350"/></pattern><rect x="0" y="0" width="100%" height="100%" fill="url(#pattern_L1_2)"/></g></svg>