<svg xmlns="http://www.w3.org/2000/svg" viewBox="0 0 852.67 161.4"><defs><style>.cls-1{font-size:53.54px;}.cls-1,.cls-2{font-family:GoogleSans-Medium, Google Sans;font-weight:500;}.cls-2{font-size:31.54px;}.cls-3{fill:#eefdff;}.cls-3,.cls-4{stroke:#000;stroke-miterlimit:10;stroke-width:2px;}.cls-4{fill:#fff;}</style></defs><title>array</title><g id="Layer_2" data-name="Layer 2"><g id="Layer_1-2" data-name="Layer 1"><text class="cls-1" transform="translate(0 117.06)">arr[5]</text><text class="cls-2" transform="translate(106 27.06)">index</text><rect class="cls-3" x="167.67" y="46.4" width="114" height="114"/><rect class="cls-4" x="281.67" y="46.4" width="114" height="114"/><rect class="cls-3" x="395.67" y="46.4" width="114" height="114"/><rect class="cls-4" x="509.67" y="46.4" width="114" height="114"/><rect class="cls-3" x="623.67" y="46.4" width="114" height="114"/><rect class="cls-4" x="737.67" y="46.4" width="114" height="114"/><path d="M219.43,28.07a11.53,11.53,0,0,1-3.74-4.9,17.43,17.43,0,0,1-1.31-6.9,17.47,17.47,0,0,1,1.31-6.93,11.38,11.38,0,0,1,3.74-4.89,9.75,9.75,0,0,1,11.23,0,11.42,11.42,0,0,1,3.72,4.89,17.47,17.47,0,0,1,1.31,6.93,17.43,17.43,0,0,1-1.31,6.9,11.53,11.53,0,0,1-3.74,4.9,9.58,9.58,0,0,1-11.21,0Zm9-3.42a8,8,0,0,0,2.25-3.46,14.51,14.51,0,0,0,.78-4.92,14.76,14.76,0,0,0-.78-4.94,7.91,7.91,0,0,0-2.25-3.46,5.28,5.28,0,0,0-6.82,0,8,8,0,0,0-2.22,3.46,14.76,14.76,0,0,0-.78,4.94,14.51,14.51,0,0,0,.78,4.92,8.16,8.16,0,0,0,2.22,3.46,5.21,5.21,0,0,0,6.82,0Z"/><path d="M335.61,8.94,331.35,12l-2.13-3.23,7.64-5.51h2.93v26h-4.18Z"/><path d="M444.3,23.32l4.79-4.81c2.38-2.4,4-4,4.75-4.88A15.53,15.53,0,0,0,456,10.85a5.1,5.1,0,0,0,.59-2.54,3.5,3.5,0,0,0-1.14-2.59,4.25,4.25,0,0,0-3.08-1.1,4.09,4.09,0,0,0-2.9,1A4.93,4.93,0,0,0,448,8.08l-3.8-1.56a7.87,7.87,0,0,1,1.43-2.7A8.56,8.56,0,0,1,452.47.67a9.31,9.31,0,0,1,4.39,1,7.41,7.41,0,0,1,3,2.74,7.22,7.22,0,0,1,1.05,3.82,8.74,8.74,0,0,1-1.16,4.31,17.6,17.6,0,0,1-2.95,3.86q-.75.72-3.83,3.8l-3.12,3.12.08.15h11.32v3.8H444.3Z"/><path d="M561.45,26.18A8.61,8.61,0,0,1,558,21.23l3.87-1.6a6,6,0,0,0,1.84,3.12,4.82,4.82,0,0,0,3.18,1.1,4.94,4.94,0,0,0,3.27-1.16,3.7,3.7,0,0,0,1.36-3,3.66,3.66,0,0,0-1.44-3,5.6,5.6,0,0,0-3.61-1.16h-2.24V11.76h2a4.92,4.92,0,0,0,3.14-1A3.32,3.32,0,0,0,570.65,8a3,3,0,0,0-1.14-2.49,4.42,4.42,0,0,0-2.89-.93,4,4,0,0,0-2.72.91,5.36,5.36,0,0,0-1.46,2.25l-3.84-1.6a8.56,8.56,0,0,1,2.82-3.82A8.07,8.07,0,0,1,566.66.67a9.59,9.59,0,0,1,4.24.91,7.21,7.21,0,0,1,2.94,2.53,6.42,6.42,0,0,1,1.07,3.63,5.94,5.94,0,0,1-1,3.47,6.86,6.86,0,0,1-2.43,2.19v.23a7.36,7.36,0,0,1,3.11,2.43A6.37,6.37,0,0,1,575.82,20,7.34,7.34,0,0,1,574.66,24a8,8,0,0,1-3.19,2.81,10.11,10.11,0,0,1-4.58,1A9.56,9.56,0,0,1,561.45,26.18Z"/><path d="M683.38,23.1H671.22V19.83L683,2.28h4.52V19.22h3.31V23.1h-3.31v5.17h-4.18Zm0-3.88V8.47h-.22L675.9,19.22Z"/><path d="M790.45,28.1a9.08,9.08,0,0,1-3.25-2.36,8.93,8.93,0,0,1-2-3.89L789,20.36a6.39,6.39,0,0,0,1.84,3.31,4.68,4.68,0,0,0,3.32,1.25,4.92,4.92,0,0,0,3.54-1.35,4.6,4.6,0,0,0,1.4-3.47,4.73,4.73,0,0,0-4.94-4.9,5,5,0,0,0-2.28.53,4.63,4.63,0,0,0-1.74,1.48L786,15.39l1.6-13.11h14.14v3.8H791.08l-1,6.84.22,0A7.26,7.26,0,0,1,795,11.4a8.25,8.25,0,0,1,7.18,4.18,8.78,8.78,0,0,1,1.14,4.48,8.83,8.83,0,0,1-1.17,4.52,8.44,8.44,0,0,1-3.25,3.16,9.76,9.76,0,0,1-8.4.36Z"/></g></g></svg>