<svg xmlns="http://www.w3.org/2000/svg" viewBox="0 0 468 555.67"><defs><style>.cls-1{font-size:53.54px;font-family:GoogleSans-Medium, Google Sans;font-weight:500;}.cls-2{fill:#fff;}.cls-2,.cls-3{stroke:#000;stroke-miterlimit:10;stroke-width:2px;}.cls-3{fill:none;}.cls-4{fill:#fff8f8;}.cls-5{fill:#cffff6;}</style></defs><title>graph</title><g id="Layer_2" data-name="Layer 2"><g id="Layer_1-2" data-name="Layer 1"><text class="cls-1" transform="translate(179.73 541.59)">Graph</text><line class="cls-2" x1="242.5" y1="56.5" x2="242.5" y2="382.5"/><polyline class="cls-3" points="242.5 56.5 56.5 236.5 242.5 382.5 411.5 236.5"/><circle class="cls-4" cx="242.5" cy="56.5" r="56"/><path d="M242.5,1A55.5,55.5,0,1,1,187,56.5,55.57,55.57,0,0,1,242.5,1m0-1A56.5,56.5,0,1,0,299,56.5,56.51,56.51,0,0,0,242.5,0Z"/><circle class="cls-5" cx="56.5" cy="236.5" r="56"/><path d="M56.5,181A55.5,55.5,0,1,1,1,236.5,55.57,55.57,0,0,1,56.5,181m0-1A56.5,56.5,0,1,0,113,236.5,56.51,56.51,0,0,0,56.5,180Z"/><circle class="cls-4" cx="242.5" cy="382.5" r="56"/><path d="M242.5,327A55.5,55.5,0,1,1,187,382.5,55.57,55.57,0,0,1,242.5,327m0-1A56.5,56.5,0,1,0,299,382.5,56.51,56.51,0,0,0,242.5,326Z"/><circle class="cls-5" cx="411.5" cy="236.5" r="56"/><path d="M411.5,181A55.5,55.5,0,1,1,356,236.5,55.57,55.57,0,0,1,411.5,181m0-1A56.5,56.5,0,1,0,468,236.5,56.51,56.51,0,0,0,411.5,180Z"/><path d="M234.6,73.12a16.24,16.24,0,0,1-5.27-6.9,24.73,24.73,0,0,1-1.85-9.72,24.88,24.88,0,0,1,1.85-9.77,16.11,16.11,0,0,1,5.27-6.88,13,13,0,0,1,7.93-2.52,12.89,12.89,0,0,1,7.89,2.52,16.15,16.15,0,0,1,5.25,6.88,24.88,24.88,0,0,1,1.85,9.77,24.73,24.73,0,0,1-1.85,9.72,16.24,16.24,0,0,1-5.27,6.9,13.51,13.51,0,0,1-15.8,0Zm12.72-4.82a11.28,11.28,0,0,0,3.16-4.87,20.57,20.57,0,0,0,1.09-6.93,20.83,20.83,0,0,0-1.09-7,11.16,11.16,0,0,0-3.16-4.87,7.41,7.41,0,0,0-9.61,0,11.21,11.21,0,0,0-3.13,4.87,20.58,20.58,0,0,0-1.1,7,20.32,20.32,0,0,0,1.1,6.93,11.33,11.33,0,0,0,3.13,4.87,7.31,7.31,0,0,0,9.61,0Z"/><path d="M51.15,254.14a12.6,12.6,0,0,1-7.37-8.81l5.3-2.08a9.08,9.08,0,0,0,2.6,4.65,6.63,6.63,0,0,0,4.69,1.77,6.88,6.88,0,0,0,5-1.9,6.47,6.47,0,0,0,2-4.9,6.71,6.71,0,0,0-2-5,6.78,6.78,0,0,0-5-2,7.09,7.09,0,0,0-3.22.75,6.65,6.65,0,0,0-2.46,2.09l-5.83-2.57,2.24-18.47H67v5.36H52l-1.34,9.63.32.06a10.15,10.15,0,0,1,6.48-2.2,11.62,11.62,0,0,1,10.12,5.89,13.13,13.13,0,0,1,0,12.69A11.85,11.85,0,0,1,63,253.63a13.71,13.71,0,0,1-11.83.51Z"/><path d="M235.89,400a12.11,12.11,0,0,1-4.55-4.63,12.51,12.51,0,0,1-1.61-6.16,14.77,14.77,0,0,1,1.23-6,40.53,40.53,0,0,1,3.64-6.34l9.27-13.6,4.65,3.21-8.35,11.62.22.21a7,7,0,0,1,3.64-.85,10.43,10.43,0,0,1,5.38,1.55,12.24,12.24,0,0,1,4.23,4.26,12,12,0,0,1-.11,12.28,12.73,12.73,0,0,1-4.66,4.5,12.46,12.46,0,0,1-6.29,1.66A12.88,12.88,0,0,1,235.89,400ZM246,395.32a6.76,6.76,0,0,0,2.55-2.43,6.94,6.94,0,0,0,0-7,6.94,6.94,0,0,0-5.94-3.35,7,7,0,0,0-3.43.89,6.82,6.82,0,0,0-2.57,2.46,6.94,6.94,0,0,0,0,7,6.76,6.76,0,0,0,2.55,2.43,7.09,7.09,0,0,0,3.48.89A7,7,0,0,0,246,395.32Z"/><path d="M399.64,249.67l6.75-6.77q5-5.07,6.69-6.88a22.37,22.37,0,0,0,3.08-3.91,7.35,7.35,0,0,0,.83-3.59,4.92,4.92,0,0,0-1.61-3.64,6,6,0,0,0-4.34-1.55A5.76,5.76,0,0,0,407,224.8a6.9,6.9,0,0,0-2.06,3.4L399.53,226a11,11,0,0,1,2-3.8,11.75,11.75,0,0,1,3.94-3.16,12,12,0,0,1,5.67-1.29,13.23,13.23,0,0,1,6.19,1.42,10.39,10.39,0,0,1,4.17,3.86,10.19,10.19,0,0,1,1.47,5.38,12.24,12.24,0,0,1-1.63,6.07,24.77,24.77,0,0,1-4.15,5.44c-.71.67-2.51,2.46-5.41,5.35l-4.39,4.39.11.21h16v5.36H399.64Z"/></g></g></svg>