<svg xmlns="http://www.w3.org/2000/svg" viewBox="0 0 901.91 536.86"><defs><style>.cls-1{font-size:53.54px;}.cls-1,.cls-2{font-family:GoogleSans-Medium, Google Sans;font-weight:500;}.cls-2{font-size:33.54px;}.cls-3{fill:#eefdff;}.cls-3,.cls-4,.cls-5{stroke:#000;stroke-miterlimit:10;stroke-width:2px;}.cls-4{fill:#fff;}.cls-5{fill:none;}</style></defs><title>queue</title><g id="Layer_2" data-name="Layer 2"><g id="Layer_1-2" data-name="Layer 1"><text class="cls-1" transform="translate(352 522.78)">Queue</text><text class="cls-2" transform="translate(0 28.78)">ENQUEUE</text><text class="cls-2" transform="translate(747 445.78)">DEQUEUE</text><rect class="cls-3" x="374.62" y="211.54" width="378" height="91" transform="translate(820.66 -306.58) rotate(90)"/><rect class="cls-4" x="270.62" y="211.54" width="378" height="91" transform="translate(716.66 -202.58) rotate(90)"/><rect class="cls-3" x="166.62" y="211.54" width="378" height="91" transform="translate(612.66 -98.58) rotate(90)"/><rect class="cls-4" x="62.62" y="211.54" width="378" height="91" transform="translate(508.66 5.42) rotate(90)"/><path class="cls-5" d="M169.67,14.11c26.24-10.06,52.28-4.91,64,11,2.27,3.09,6.37,9.8,6.93,20.83"/><polygon points="231.75 40.07 233.08 38.58 240.41 45.19 246.46 37.4 248.04 38.63 240.66 48.11 231.75 40.07"/><path class="cls-5" d="M727.54,436.85c-33.3,9-66,3.89-80.84-11.31a31.69,31.69,0,0,1-9.07-22.43"/><polygon points="719.07 430.52 718.12 432.28 726.78 436.99 721.45 445.29 723.14 446.37 729.63 436.26 719.07 430.52"/></g></g></svg>