<svg xmlns="http://www.w3.org/2000/svg" viewBox="0 0 604.61 582.86"><defs><style>.cls-1{font-size:53.54px;}.cls-1,.cls-2{font-family:GoogleSans-Medium, Google Sans;font-weight:500;}.cls-2{font-size:33.54px;}.cls-3{fill:#eefdff;}.cls-3,.cls-4,.cls-5{stroke:#000;stroke-miterlimit:10;stroke-width:2px;}.cls-4{fill:#fff;}.cls-5{fill:none;}</style></defs><title>stack</title><g id="Layer_2" data-name="Layer 2"><g id="Layer_1-2" data-name="Layer 1"><text class="cls-1" transform="translate(260 568.78)">Stack</text><text class="cls-2" transform="translate(0 28.78)">PUSH</text><text class="cls-2" transform="translate(537 28.78)">POP</text><rect class="cls-3" x="141.92" y="76.61" width="378" height="91"/><rect class="cls-4" x="141.92" y="180.61" width="378" height="91"/><rect class="cls-3" x="141.92" y="284.61" width="378" height="91"/><rect class="cls-4" x="141.92" y="388.61" width="378" height="91"/><polyline class="cls-5" points="124.42 59.61 124.42 496.61 537.42 496.61 537.42 59.61"/><path class="cls-5" d="M91.67,17.11c26.24-10.06,52.28-4.91,64,11,2.27,3.09,6.37,9.8,6.93,20.83"/><polygon points="153.75 43.07 155.08 41.58 162.41 48.19 168.46 40.4 170.04 41.63 162.66 51.11 153.75 43.07"/><path class="cls-5" d="M528.63,13.35c-25.17-9-49.82-3.74-61.06,11.76-2.39,3.29-6.81,10.67-6.9,23"/><polygon points="524.89 3.58 523.14 4.54 527.88 13.19 518.91 17.29 519.74 19.11 530.67 14.11 524.89 3.58"/></g></g></svg>