<svg xmlns="http://www.w3.org/2000/svg" viewBox="0 0 471 555.67"><defs><style>.cls-1{fill:none;stroke:#000;stroke-miterlimit:10;stroke-width:2px;}.cls-2{font-size:53.54px;font-family:GoogleSans-Medium, Google Sans;font-weight:500;}.cls-3{fill:#fff8f8;}.cls-4{fill:#cffff6;}</style></defs><title>tree</title><g id="Layer_2" data-name="Layer 2"><g id="Layer_1-2" data-name="Layer 1"><polyline class="cls-1" points="56 427 166 220 285 57 414 211"/><text class="cls-2" transform="translate(221.73 541.59)">Tree</text><circle class="cls-3" cx="284.5" cy="56.5" r="56"/><path d="M284.5,1A55.5,55.5,0,1,1,229,56.5,55.57,55.57,0,0,1,284.5,1m0-1A56.5,56.5,0,1,0,341,56.5,56.51,56.51,0,0,0,284.5,0Z"/><path d="M276.6,73.12a16.24,16.24,0,0,1-5.27-6.9,24.73,24.73,0,0,1-1.85-9.72,24.88,24.88,0,0,1,1.85-9.77,16.11,16.11,0,0,1,5.27-6.88,13,13,0,0,1,7.93-2.52,12.89,12.89,0,0,1,7.89,2.52,16.15,16.15,0,0,1,5.25,6.88,24.88,24.88,0,0,1,1.85,9.77,24.73,24.73,0,0,1-1.85,9.72,16.24,16.24,0,0,1-5.27,6.9,13.51,13.51,0,0,1-15.8,0Zm12.72-4.82a11.28,11.28,0,0,0,3.16-4.87,20.57,20.57,0,0,0,1.09-6.93,20.83,20.83,0,0,0-1.09-7,11.16,11.16,0,0,0-3.16-4.87,7.41,7.41,0,0,0-9.61,0,11.21,11.21,0,0,0-3.13,4.87,20.58,20.58,0,0,0-1.1,7,20.32,20.32,0,0,0,1.1,6.93,11.33,11.33,0,0,0,3.13,4.87,7.31,7.31,0,0,0,9.61,0Z"/><circle class="cls-4" cx="165.5" cy="219.5" r="56"/><path d="M165.5,164A55.5,55.5,0,1,1,110,219.5,55.57,55.57,0,0,1,165.5,164m0-1A56.5,56.5,0,1,0,222,219.5,56.51,56.51,0,0,0,165.5,163Z"/><path d="M160.15,237.14a12.6,12.6,0,0,1-7.37-8.81l5.3-2.08a9.08,9.08,0,0,0,2.6,4.65,6.63,6.63,0,0,0,4.69,1.77,6.88,6.88,0,0,0,5-1.9,6.47,6.47,0,0,0,2-4.9,6.71,6.71,0,0,0-2-5,6.78,6.78,0,0,0-5-2,7.09,7.09,0,0,0-3.22.75,6.65,6.65,0,0,0-2.46,2.09l-5.83-2.57,2.24-18.47H176v5.36H161l-1.34,9.63.32.06a10.15,10.15,0,0,1,6.48-2.2,11.62,11.62,0,0,1,10.12,5.89,13.13,13.13,0,0,1-.05,12.69,11.85,11.85,0,0,1-4.58,4.44,13.71,13.71,0,0,1-11.83.51Z"/><circle class="cls-3" cx="56.5" cy="426.5" r="56"/><path d="M56.5,371A55.5,55.5,0,1,1,1,426.5,55.57,55.57,0,0,1,56.5,371m0-1A56.5,56.5,0,1,0,113,426.5,56.51,56.51,0,0,0,56.5,370Z"/><path d="M49.89,444a12.11,12.11,0,0,1-4.55-4.63,12.51,12.51,0,0,1-1.61-6.16,14.77,14.77,0,0,1,1.23-6,40.53,40.53,0,0,1,3.64-6.34l9.27-13.6,4.65,3.21-8.35,11.62.22.21a7,7,0,0,1,3.64-.85A10.43,10.43,0,0,1,63.41,423a12.24,12.24,0,0,1,4.23,4.26,12,12,0,0,1-.11,12.28,12.73,12.73,0,0,1-4.66,4.5,12.46,12.46,0,0,1-6.29,1.66A12.88,12.88,0,0,1,49.89,444ZM60,439.32a6.76,6.76,0,0,0,2.55-2.43,6.94,6.94,0,0,0,0-7,6.94,6.94,0,0,0-5.94-3.35,7,7,0,0,0-3.43.89,6.82,6.82,0,0,0-2.57,2.46,6.94,6.94,0,0,0,0,7,6.76,6.76,0,0,0,2.55,2.43,7.09,7.09,0,0,0,3.48.89A7,7,0,0,0,60,439.32Z"/><circle class="cls-4" cx="414.5" cy="210.5" r="56"/><path d="M414.5,155A55.5,55.5,0,1,1,359,210.5,55.57,55.57,0,0,1,414.5,155m0-1A56.5,56.5,0,1,0,471,210.5,56.51,56.51,0,0,0,414.5,154Z"/><path d="M402.64,223.67l6.75-6.77q5-5.07,6.69-6.88a22.37,22.37,0,0,0,3.08-3.91,7.35,7.35,0,0,0,.83-3.59,4.92,4.92,0,0,0-1.61-3.64,6,6,0,0,0-4.34-1.55A5.76,5.76,0,0,0,410,198.8a6.9,6.9,0,0,0-2.06,3.4L402.53,200a11,11,0,0,1,2-3.8,11.75,11.75,0,0,1,3.94-3.16,12,12,0,0,1,5.67-1.29,13.23,13.23,0,0,1,6.19,1.42,10.39,10.39,0,0,1,4.17,3.86,10.19,10.19,0,0,1,1.47,5.38,12.24,12.24,0,0,1-1.63,6.07,24.77,24.77,0,0,1-4.15,5.44c-.71.67-2.51,2.46-5.41,5.35l-4.39,4.39.11.21h16v5.36H402.64Z"/></g></g></svg>